<svg width="1920" height="1080" viewBox="0 0 1920 1080" fill="none" xmlns="http://www.w3.org/2000/svg">
<rect width="1920" height="1224" fill="white"/>
<rect x="50.7617" y="149.6" width="1801.55" height="984.867" fill="url(#paint0_linear)"/>
<path d="M0 0H1920V711.733C1920 711.733 1510.99 23.6701 971.998 158.667C609.997 249.333 0 793.333 0 793.333V0Z" fill="url(#paint1_linear)"/>
<path d="M606.052 0H1918V811.467C1918 811.467 1780.22 575.733 1444.74 376.267C1109.26 176.8 606.052 0 606.052 0Z" fill="url(#paint2_linear)"/>
<path d="M1435.74 917.056C1625.84 769.267 1920 487.333 1920 487.333V1224H961.496C961.496 1224 1158.39 1132.68 1435.74 917.056Z" fill="url(#paint3_linear)"/>
<path d="M0 455.6C0 455.6 179.507 714.381 556.327 902.71C1054.05 1151.47 1780.64 1224 1780.64 1224H0V455.6Z" fill="url(#paint4_linear)"/>
<path d="M1772.23 627.867L1918 487.333V793.333L1772.23 627.867Z" fill="#FDEA46"/>
<path d="M178.72 646.54L-1.78218e-05 457.867V770.667L178.72 646.54Z" fill="#FEE407"/>
<defs>
<linearGradient id="paint0_linear" x1="1069.33" y1="217.6" x2="1074.19" y2="838.66" gradientUnits="userSpaceOnUse">
<stop stop-color="#9F2AEA"/>
<stop offset="1" stop-color="#340BC7"/>
</linearGradient>
<linearGradient id="paint1_linear" x1="-44" y1="-394.4" x2="554.756" y2="679.406" gradientUnits="userSpaceOnUse">
<stop offset="0.0867842" stop-color="#9F38E1"/>
<stop offset="1" stop-color="#340BC7"/>
</linearGradient>
<linearGradient id="paint2_linear" x1="1608.48" y1="-154.133" x2="1236.32" y2="234.452" gradientUnits="userSpaceOnUse">
<stop stop-color="#862DDB"/>
<stop offset="1" stop-color="#340BC7"/>
</linearGradient>
<linearGradient id="paint3_linear" x1="1333.69" y1="1162.61" x2="1970.22" y2="751.538" gradientUnits="userSpaceOnUse">
<stop stop-color="#F2A71A"/>
<stop offset="0.44279" stop-color="#F2BB16"/>
<stop offset="1" stop-color="#FEE407"/>
</linearGradient>
<linearGradient id="paint4_linear" x1="-899.295" y1="902.71" x2="1767.14" y2="1156.38" gradientUnits="userSpaceOnUse">
<stop stop-color="#F2A71A"/>
<stop offset="0.333394" stop-color="#F2BB16"/>
<stop offset="1" stop-color="#FEE407"/>
</linearGradient>
</defs>
</svg>
