<svg width="1920" height="1224" viewBox="0 0 1920 1224" fill="none" xmlns="http://www.w3.org/2000/svg">
<g clip-path="url(#clip0)">
<rect width="1920" height="1224" fill="white"/>
<rect x="58" y="150" width="1801.55" height="984.867" fill="url(#paint0_linear)"/>
<path d="M-1 0H1919V711.733C1919 711.733 1509.99 23.6701 970.998 158.667C608.997 249.333 -1 793.333 -1 793.333V0Z" fill="url(#paint1_linear)"/>
<path d="M0 -9C0 -9 198 663 558 907C1018.6 1219.18 1780.64 1224.4 1780.64 1224.4H0V-9Z" fill="url(#paint2_linear)"/>
<path d="M608 -1H1919.95V810.467C1919.95 810.467 1782.16 574.733 1446.69 375.267C1111.21 175.8 608 -1 608 -1Z" fill="url(#paint3_linear)"/>
<path d="M1586 659C1820 347 1918.5 -1 1918.5 -1V1223.67H1434H960C960 1223.67 1352 971 1586 659Z" fill="url(#paint4_linear)"/>
</g>
<defs>
<linearGradient id="paint0_linear" x1="1076.57" y1="218" x2="1081.43" y2="839.06" gradientUnits="userSpaceOnUse">
<stop stop-color="#9F2AEA"/>
<stop offset="1" stop-color="#340BC7"/>
</linearGradient>
<linearGradient id="paint1_linear" x1="-45" y1="-394.4" x2="553.756" y2="679.406" gradientUnits="userSpaceOnUse">
<stop offset="0.0867842" stop-color="#9F38E1"/>
<stop offset="1" stop-color="#340BC7"/>
</linearGradient>
<linearGradient id="paint2_linear" x1="-899.295" y1="903.11" x2="1767.14" y2="1156.78" gradientUnits="userSpaceOnUse">
<stop stop-color="#F2A71A"/>
<stop offset="0.333394" stop-color="#F2BB16"/>
<stop offset="1" stop-color="#FEE407"/>
</linearGradient>
<linearGradient id="paint3_linear" x1="1610.43" y1="-155.133" x2="1238.27" y2="233.452" gradientUnits="userSpaceOnUse">
<stop stop-color="#A02BEB"/>
<stop offset="1" stop-color="#350CC8"/>
</linearGradient>
<linearGradient id="paint4_linear" x1="1332.19" y1="1162.28" x2="1968.72" y2="751.205" gradientUnits="userSpaceOnUse">
<stop stop-color="#F2A71A"/>
<stop offset="0.44279" stop-color="#F2BB16"/>
<stop offset="1" stop-color="#FEE407"/>
</linearGradient>
<clipPath id="clip0">
<rect width="1920" height="1224" fill="white"/>
</clipPath>
</defs>
</svg>
