<svg width="287" height="138" viewBox="0 0 287 138" fill="none" xmlns="http://www.w3.org/2000/svg">
<path d="M257.841 21.6707C258.63 23.0845 259.648 24.411 260.859 25.6045C260.448 22.8952 260.49 20.1396 260.985 17.4404C261.023 17.2342 261.056 17.0022 260.901 16.8376C260.757 16.6839 260.498 16.6448 260.263 16.6242C256.069 16.259 256.468 19.2059 257.841 21.6707Z" fill="#8C6239"/>
<path d="M267.483 28.2102C267.812 28.063 268.115 27.8935 268.386 27.7148C272.13 25.2423 277.386 13.2876 266.334 11.6992C256.3 10.2572 258.252 21.24 260.754 25.6688C261.228 26.5084 261.895 27.415 262.892 28.0214C263.159 28.184 261.992 30.5532 262.094 30.9946C262.299 31.879 263.456 32.4737 264.502 32.4107C265.409 32.3559 266.56 31.7022 267.031 31.0849C267.373 30.6387 267.174 28.3486 267.483 28.2102" fill="#FEE7DE"/>
<path d="M269.145 24.8022C269.903 25.5055 271.316 25.1726 272.275 24.6622C276.214 22.567 278.122 18.1967 276.704 14.5147C275.518 11.4339 270.388 9.50049 269.925 13.4899C269.761 14.9041 271.036 16.7301 271.002 18.2859C270.956 20.5094 269.989 22.7175 269.145 24.8022Z" fill="#8C6239"/>
<path d="M256.017 8.72715C251.541 11.4558 250.16 16.5379 246.181 19.7474C250.392 20.8134 255.124 20.3946 258.965 18.6165C262.731 16.8727 272.035 15.0491 270.071 10.644C268.073 6.16071 259.94 6.33661 256.017 8.72715Z" fill="#8C6239"/>
<path d="M260.507 131.643L261.321 132.465L261.674 133.349L259.23 136.395L256.92 137.126L254.331 136.943C254.331 136.943 253.221 136.608 253.887 135.877C254.553 135.146 256.328 134.78 256.328 134.78L256.069 132.321L260.507 131.643Z" fill="#4D4D4D"/>
<path d="M270.16 131.733L270.493 133.256L272.305 135.845L271.491 136.668L268.458 136.455L266.609 134.292V130.027L270.086 130.301L270.16 131.733Z" fill="#4D4D4D"/>
<path d="M274.227 71.9947L276.036 80.1588L270.933 132.321L265.593 131.398L256.733 73.7413L274.227 71.9947" fill="#333333"/>
<path d="M246.296 70.9223L245.264 104.545L255.631 133.568L261.674 131.718L256.585 105.835L261.258 70.6354L246.296 70.9223" fill="#333333"/>
<path d="M277.311 37.1103C278.279 38.8444 278.458 40.7616 278.778 42.8512C279.332 46.4727 279.606 50.1139 279.668 53.7544C279.74 57.9855 279.524 62.2147 279.118 66.4305C278.916 68.5386 278.665 70.6435 278.379 72.7455C278.232 73.8341 278.814 76.6297 277.384 77.2026C276.59 77.5205 275.628 77.4511 274.729 77.3732C266.8 76.6874 258.872 76.0015 250.943 75.316C249.672 75.2058 248.356 75.0848 247.255 74.5825C245.285 73.6823 245.626 71.9144 245.315 70.4252C244.903 68.4506 244.81 66.447 244.858 64.4555C244.959 60.3595 245.722 56.3035 246.08 52.2224C246.465 47.8347 247.319 41.9498 249.339 37.778C250.248 36.0161 251.528 34.3808 253.277 33.0353C255.461 31.3548 257.471 30.9308 260.412 30.4922C260.535 30.4737 260.664 30.4535 260.759 30.3905C260.861 30.3232 260.905 30.2187 260.944 30.1194C261.131 29.647 261.319 29.1749 261.507 28.7028C261.578 28.5245 261.665 28.3296 261.878 28.2405C262.082 28.1545 262.335 28.1953 262.563 28.2377C264.533 28.6068 266.503 28.976 268.473 29.3448C268.364 29.7155 268.256 30.0956 268.325 30.4733C268.393 30.8509 268.678 31.231 269.143 31.3669C271.159 31.956 273.264 33.2644 274.892 34.4542C276.029 35.2838 276.786 36.1702 277.311 37.1103" fill="#A2A2A2"/>
<path d="M219.094 51.7697C221.818 61.7031 250.417 83.93 250.417 83.93C250.417 83.93 264.642 53.7358 261.918 43.8025C259.194 33.8683 247.4 27.5993 235.575 29.7998C223.749 31.9999 216.371 41.836 219.094 51.7697Z" fill="#C80008"/>
<path d="M230.224 48.8658C231.504 53.535 237.048 56.482 242.607 55.4479C248.165 54.4134 251.634 49.7897 250.353 45.1208C249.073 40.4515 243.529 37.5046 237.971 38.5391C232.412 39.5728 228.944 44.1965 230.224 48.8658Z" fill="white"/>
<path d="M258.68 46.0648C256.314 37.4354 246.068 31.9895 235.795 33.9007C229.791 35.0179 225.107 38.4017 222.724 42.7438C224.651 37.4625 229.807 33.189 236.704 31.9059C246.976 29.9947 257.222 35.4407 259.588 44.07C260.571 47.6552 260.038 51.2255 258.344 54.3116C259.287 51.7266 259.457 48.9003 258.68 46.0648" fill="#FA554B"/>
<path d="M253.58 76.1112C251.788 80.76 250.417 83.93 250.417 83.93C250.417 83.93 221.818 61.7031 219.095 51.7697C218.952 51.248 218.843 50.7272 218.755 50.2071C220.357 52.8095 222.288 55.2738 224.457 57.5655C230.453 63.8979 237.692 67.3237 245.652 71.8853C248.218 73.3559 250.863 74.7903 253.58 76.1112Z" fill="#EA6D71"/>
<path d="M257.424 62.3565C256.634 62.7849 255.793 63.1146 254.914 63.4777C254.707 63.5636 254.495 63.6508 254.264 63.6782C253.987 63.7113 253.706 63.6552 253.434 63.5991C253.038 63.518 252.643 63.4369 252.247 63.3554C252 63.3046 251.75 63.253 251.531 63.1452C250.969 62.8676 250.752 62.2975 250.579 61.7771C250.543 61.6714 250.508 61.5596 250.537 61.4523C250.587 61.2723 250.813 61.1557 251.036 61.136C251.741 61.0734 251.977 61.1646 252.693 60.8693C253.302 60.6179 253.912 60.3488 254.425 59.9744C254.212 59.8066 253.888 59.7888 253.575 59.7327C253.312 59.6859 253.008 59.6092 252.921 59.3998C252.807 59.1206 253.178 58.8677 253.521 58.7858C254.21 58.6212 254.946 58.7402 255.663 58.7277C256.729 58.7095 258.459 58.0886 259.157 58.8527C259.582 59.3179 259.816 60.0171 260.117 60.5481C259.51 60.9722 258.903 61.3962 258.296 61.8206C258.013 62.0179 257.722 62.1947 257.424 62.3565" fill="#FEE7DE"/>
<path d="M279.061 38.2063C278.433 37.4562 277.788 36.7158 277.127 35.986C275.666 34.3729 273.648 32.1764 270.981 32.6328C267.983 33.1456 267.622 35.616 268.315 37.5978C269.102 39.852 274.801 46.0593 275.589 48.3135C275.589 48.3135 264.439 54.4369 257.735 58.1645C258.204 58.9287 258.525 60.4501 259.5 60.8923C261.786 61.928 269.539 58.5575 271.714 57.7945C276.785 56.0161 281.549 53.6441 285.813 50.7661C286.161 50.5313 286.523 50.2723 286.649 49.9164C286.802 49.4843 286.568 49.03 286.336 48.6229C284.26 44.9954 281.824 41.5074 279.061 38.2063Z" fill="#A2A2A2"/>
<path d="M231.413 72.8985C232.03 73.3052 232.91 73.5219 233.62 73.2362C234.154 73.0208 234.485 72.5721 234.75 72.1331C235.186 71.4085 235.522 70.6435 235.751 69.8576C236.324 67.8871 234.28 65.8015 231.874 67.1471C229.735 68.3426 229.383 71.5598 231.413 72.8985Z" fill="#A2A2A2"/>
<path d="M237.644 72.9806C238.252 72.8216 238.963 72.5356 239.187 71.9723C239.41 71.4119 239.264 70.5913 239.048 70.0451C238.819 69.4633 238.076 69.573 237.533 69.7311C237.029 69.8788 236.508 70.0188 235.976 69.9498C236.009 69.3644 236.762 69.2192 236.846 68.6571C236.881 68.4183 236.813 68.1766 236.718 67.9535C236.685 67.8773 236.638 67.7933 236.553 67.7772C236.496 67.7659 236.438 67.7905 236.384 67.8131C235.139 68.3465 233.825 68.1807 232.681 68.9985C231.46 69.8707 231.453 71.1384 232.581 72.1023C233.797 73.1424 235.842 73.3812 237.377 73.0443C237.462 73.0254 237.552 73.0044 237.644 72.9806" fill="#FEE7DE"/>
</svg>
