<svg width="287" height="138" viewBox="0 0 287 138" fill="none" xmlns="http://www.w3.org/2000/svg">
<path d="M111.731 50.9956C111.669 50.6294 111.611 50.2407 111.342 49.9506C111.072 49.6596 110.504 49.5329 110.199 49.7975C109.453 50.43 109.77 50.494 108.749 50.3375C107.245 50.1062 106.019 48.6392 104.798 49.7793C103.612 50.8879 104.572 51.3553 105.8 51.8391C106.767 52.2213 107.844 52.5564 108.58 53.243C109.063 53.6944 110.487 55.6405 110.487 56.1688C110.553 56.2656 110.623 56.3664 110.739 56.4196C110.946 56.5151 111.201 56.4196 111.4 56.3119C113.936 54.9387 112.077 53.0138 111.731 50.9956" fill="#EACDB0"/>
<path d="M120.99 62.4853C118.969 60.1401 117.412 57.4733 115.323 55.2124C114.323 54.1293 114.356 53.697 112.575 53.5608C112.131 53.527 108.462 54.3658 108.541 54.6374C110.26 60.5041 112.45 66.2719 115.09 71.887C116.671 75.2478 119.431 74.3061 123.201 74.2655C127.228 74.2223 131.255 74.1794 135.281 74.1362C137.495 74.1124 140.007 73.9736 141.413 72.5256C143.036 70.8558 143.949 67.5647 143.658 65.472C143.143 61.7571 139.974 62.0235 136.522 62.4714C132.606 62.979 128.689 63.487 124.772 63.9946C124.046 64.0893 123.268 64.1775 122.605 63.9086C122.098 63.7024 121.733 63.315 121.39 62.9375C121.255 62.7879 121.121 62.637 120.99 62.4853" fill="#125250"/>
<path d="M123.237 111.973C123.666 108.826 125.529 106.327 128.97 104.96C131.762 103.85 134.899 103.589 137.958 103.257C144.769 102.517 151.271 101.777 158.149 102.006C163.648 102.189 167.037 106.162 169.611 110.081C171.234 112.55 170.783 113.709 168.741 115.777C166.858 117.684 164.573 119.306 162.02 120.535C156.966 122.967 149.201 122.365 143.635 121.84C138.381 121.344 133.239 120.015 128.553 117.943C125.537 116.609 122.818 115.037 123.237 111.973" fill="#443C36"/>
<path d="M157.347 121.54C158.259 123.349 159.056 125.2 159.735 127.081C160.093 128.077 160.422 129.101 160.376 130.14C160.27 132.576 157.07 134.34 154.978 132.089C154.061 131.102 153.327 129.995 152.807 128.82C152.04 127.087 153.66 128.097 155.028 127.564C156.603 126.951 156.566 126.475 155.897 125.224C155.035 123.614 154.015 122.564 154.137 120.711C154.171 120.199 154.342 119.605 154.899 119.405C155.322 119.253 155.828 119.401 156.163 119.666C156.499 119.932 156.699 120.295 156.887 120.649C157.044 120.945 157.196 121.242 157.347 121.54" fill="#4D4D4D"/>
<path d="M147.043 61.7017C144.452 61.4098 141.822 61.0121 139.652 61.8128C137.814 62.4912 137.845 64.4563 137.434 65.9419C136.074 70.8571 135.053 75.8315 134.253 80.8326C133.871 83.2241 133.209 85.7845 133.226 88.1993C133.239 90.1372 133.812 92.021 133.636 93.9961C133.5 95.5133 132.739 97.1515 131.098 97.7719C130.272 98.0841 129.324 98.0988 128.496 98.4075C127.669 98.7167 126.96 99.5416 127.377 100.221C127.575 100.544 127.971 100.739 128.346 100.917C130.393 101.883 132.439 102.849 134.486 103.816C136.049 104.554 137.622 105.295 139.305 105.807C141.692 106.533 144.244 106.78 146.776 106.889C153.317 107.17 159.912 106.558 166.225 105.082C169.624 104.288 172.908 102.879 172.083 99.6229C171.235 96.2712 169.593 92.9272 167.823 89.8579C165.681 86.143 165.045 81.6658 163.528 77.7455C162.119 74.1072 160.694 70.4614 159.133 66.8676C158.367 65.1027 157.012 63.448 155.01 62.556C152.534 61.4531 149.727 62.0048 147.043 61.7017" fill="#125250"/>
<path d="M135.577 122.521C134.987 122.548 134.398 122.575 133.808 122.602C133.167 122.63 132.453 122.639 131.976 122.276C131.394 121.833 131.459 120.995 131.93 120.466C132.402 119.936 133.161 119.654 133.906 119.452C135.707 118.963 137.609 118.813 139.498 118.75C139.687 118.744 139.883 118.739 140.059 118.799C140.365 118.903 140.539 119.177 140.642 119.442C141.713 122.197 137.867 122.418 135.577 122.521" fill="#EACDB0"/>
<path d="M158.263 127.212C158.295 127.435 158.324 127.671 158.212 127.873C158.13 128.02 157.98 128.133 157.817 128.22C156.601 128.877 154.967 128.17 154.036 127.237C153.105 126.305 152.474 125.125 151.287 124.433C148.57 122.847 151.057 119.944 153.897 120.61C157.213 121.387 157.909 124.76 158.263 127.212" fill="#EACDB0"/>
<path d="M121.64 112.267C119.293 110.806 116.94 109.151 116.083 106.691C115.225 104.232 116.435 100.758 119.463 99.3402C123.154 97.6107 126.781 99.7358 129.413 101.742C134.806 105.846 140.683 109.475 146.428 113.229C148.37 114.499 155.107 119.17 155.107 119.17C155.292 119.829 151.671 125.785 150.711 125.567C140.23 123.221 130.036 117.49 121.64 112.267" fill="#514943"/>
<path d="M174.393 115.096C176.691 114.149 179.002 113.008 179.911 110.733C180.82 108.459 179.787 104.715 176.94 102.63C173.47 100.089 169.924 101.421 167.333 102.852C162.025 105.779 156.272 108.123 150.64 110.621C148.736 111.465 142.122 114.665 142.122 114.665C141.921 115.284 145.172 122.043 146.098 122.036C156.212 121.986 166.173 118.484 174.393 115.096" fill="#514943"/>
<path d="M139.529 123.725C137.417 124.594 135.25 125.368 133.04 126.041C131.871 126.397 130.666 126.729 129.424 126.742C126.515 126.771 124.252 124.123 126.833 122.222C127.963 121.39 129.247 120.707 130.622 120.204C132.651 119.463 131.527 120.897 132.23 122.041C133.039 123.358 133.605 123.302 135.063 122.667C136.941 121.851 138.142 120.926 140.358 120.939C140.97 120.942 141.686 121.059 141.953 121.525C142.155 121.879 142.004 122.319 141.704 122.619C141.405 122.919 140.982 123.109 140.568 123.287C140.223 123.435 139.877 123.581 139.529 123.725" fill="#4D4D4D"/>
<path d="M116.781 103.62L146.552 95.6939L183.37 97.298L162.54 105.078L116.781 103.62" fill="#E6E6E6"/>
<path d="M116.879 101.44L115.768 76.9606L161.271 77.9265L162.585 104.104L116.879 101.44Z" fill="#9CB6B6"/>
<path d="M182.736 97.2642C176.042 99.5345 169.346 101.804 162.652 104.074C162.627 104.083 162.607 104.095 162.584 104.105L162.638 102.898L116.879 101.44L116.781 103.62L162.093 105.064C162.186 105.432 162.528 105.714 163.03 105.544C169.724 103.274 176.418 101.004 183.113 98.7338C184.103 98.3978 183.741 96.9235 182.736 97.2642" fill="#6BCBCB"/>
<path d="M163.115 95.7338C162.896 95.8635 162.648 96.0191 162.626 96.25C162.612 96.4018 162.703 96.5445 162.797 96.6725C163.072 97.0456 163.436 97.4006 163.922 97.5316C164.408 97.6626 165.027 97.4888 165.198 97.0702C165.676 97.7067 165.229 98.5801 164.595 99.1024C163.961 99.6251 163.143 99.9853 162.635 100.604C162.243 101.081 162.075 101.666 161.914 102.236C164.039 102.742 166.493 101.877 167.62 100.225C168.054 99.5896 168.298 98.8719 168.538 98.1624C168.973 96.8783 169.408 95.5941 169.843 94.3096C168.707 93.6398 167.687 92.6865 166.324 93.1396C165.279 93.4876 164.124 95.1376 163.115 95.7338" fill="#EACDB0"/>
<path d="M171.144 81.0598C172.815 83.7976 174.316 86.7148 174.424 89.7954C174.53 92.876 172.963 96.1685 169.769 97.6455C168.881 95.9882 167.148 94.7655 166.056 93.1977C163.278 89.2091 165.168 83.9974 163.414 79.6114C162.441 77.1793 160.44 75.2436 158.722 73.1782C157.813 72.0856 157.002 70.9947 156.282 69.8049C155.864 69.1126 154.569 67.6975 154.375 67.0654C154.241 66.6256 154.386 66.1626 154.555 65.7319C154.827 65.0393 155.255 64.2909 156.072 64.0582C156.956 63.807 157.897 64.274 158.583 64.808C161.037 66.713 162.522 70.0284 164.42 72.3757C166.73 75.2328 169.26 77.9723 171.144 81.0598Z" fill="#125250"/>
<path d="M150.088 63.7527C149.997 63.8452 149.891 63.9304 149.767 64.0056C149.251 64.3217 148.604 64.435 147.98 64.54C147.168 64.6762 146.319 64.812 145.524 64.6166C142.941 63.9806 144.111 60.2375 144.392 58.6836C142.716 58.1609 140.784 57.3644 140.528 55.7059C140.448 55.1836 140.556 54.6457 140.665 54.1195C141.111 51.9451 141.558 49.7707 142.005 47.5964C142.16 46.844 142.324 46.0701 142.771 45.4185C143.555 44.2758 145.038 43.7509 146.436 43.4915C150.006 42.8312 153.866 43.472 156.573 45.6075C157.293 46.1756 157.94 46.8639 158.244 47.7097C158.713 49.0141 158.306 50.4729 157.898 51.8318C157.523 53.0866 157.147 54.3413 156.771 55.5956C156.338 57.0389 155.724 58.6823 154.246 59.2522C153.461 59.5548 152.544 59.4917 151.83 59.9301C150.332 60.848 151.073 62.7517 150.088 63.7527" fill="#EACDB0"/>
<path d="M145.499 45.7246C145.389 45.8296 145.292 45.9412 145.21 46.061C144.775 46.6857 144.78 47.4757 144.351 48.1035C143.671 49.0992 142.046 49.4897 141.559 50.5637C141.162 51.4418 141.689 52.4315 141.532 53.3624C141.36 54.3794 140.373 55.2013 140.255 56.2143C140.152 57.0938 140.509 58.416 140.953 59.2111C140.815 58.9642 139.092 58.7497 138.705 58.4453C138.111 57.9792 138.086 57.7454 138.026 57.1132C137.968 56.4854 138.262 55.9268 138.095 55.2657C137.891 54.4546 137.234 53.7723 137.149 52.9296C137.031 51.7799 137.986 50.7513 138.202 49.6116C138.529 47.8873 137.167 45.9771 138.188 44.459C138.787 43.5688 140.025 43.1459 140.845 42.3923C141.468 41.8198 141.823 41.0805 142.317 40.4237C142.81 39.7678 143.536 39.1508 144.452 39.0825C144.961 39.0445 145.465 39.1815 145.976 39.188C146.858 39.1993 147.684 38.8231 148.558 38.7284C149.811 38.5926 151.64 39.9498 152.123 40.908C152.604 41.8588 152.092 42.5103 151.222 43.1295C149.772 44.162 146.787 44.4897 145.499 45.7246" fill="#333333"/>
<path d="M163.394 43.6488C163.992 44.2057 164.785 44.6687 165.304 45.2879C166.319 46.4959 166.178 48.1268 165.877 49.5865C165.609 50.8866 166.003 52.1495 165.517 53.4687C165.191 54.3546 164.519 55.1925 163.521 55.5782C162.28 56.059 160.554 55.8778 159.818 56.852C159.02 57.91 160.08 59.5953 158.99 60.4466C158.389 60.9166 157.449 60.8397 156.687 61.0948C155.839 61.3788 155.277 62.0494 154.664 62.6219C154.05 63.1939 153.207 63.7283 152.309 63.5917C152.547 62.4338 152.724 61.5142 153.556 60.5595C154.041 60.0035 155.307 59.0415 154.7 58.2459C154.349 57.6108 153.251 57.2368 153.386 56.545C153.449 56.2198 153.78 55.9907 154.053 55.7568C155.114 54.8523 155.528 53.4769 155.253 52.2235C154.979 50.9709 154.066 49.8511 152.867 49.0802C151.463 48.1761 151.79 47.8972 151.639 46.5586C151.499 45.3263 150.786 44.9212 149.652 44.2874C148.634 43.7184 148.335 43.4205 148.135 42.4727C147.988 41.7788 147.804 40.946 148.409 40.3031C148.889 39.7921 149.607 39.4903 150.301 39.2045C151.751 38.6078 153.366 37.996 154.919 38.3613C155.781 38.5646 156.522 39.0531 157.388 39.2451C157.966 39.3726 158.573 39.3623 159.162 39.4457C160.166 39.588 161.157 40.0242 161.844 40.6646C162.538 41.311 162.389 41.838 162.67 42.6349C162.808 43.0253 163.073 43.3504 163.394 43.6488" fill="#333333"/>
<path d="M159.193 38.309C159.231 37.4802 159.578 36.4507 160.548 36.3344C161.079 36.2704 161.597 36.5285 162.133 36.5277C163.277 36.526 163.919 35.4632 164.689 34.7472C164.805 34.6395 164.937 34.5336 165.104 34.502C165.343 34.4571 165.577 34.5729 165.81 34.6387C166.875 34.9383 167.924 34.1665 169.033 34.0109C170.405 33.8185 171.848 34.7671 171.968 35.9405C172.017 36.4226 171.874 36.9069 171.913 37.3898C172.071 39.3454 175.089 40.6814 174.712 42.6163C174.458 43.9234 172.662 44.9104 172.959 46.2114C173.149 47.0433 174.192 47.7662 173.862 48.5661C173.65 49.0811 172.899 49.3275 172.27 49.2125C171.641 49.0971 171.131 48.7049 170.739 48.2726C170.117 47.586 169.72 46.7731 169.142 46.0597C168.564 45.3463 167.72 44.7033 166.701 44.6385C165.714 44.5762 164.692 45.0622 163.767 44.763C163.028 44.5235 162.598 43.8486 161.885 43.5571C161.217 43.2852 160.43 43.3941 159.698 43.3072C158.964 43.2203 158.15 42.749 158.277 42.1316C158.308 41.9816 158.394 41.8363 158.372 41.6854C158.312 41.263 157.508 41.1493 157.45 40.7264C157.946 40.2966 158.437 40.5651 158.862 39.9668C159.191 39.5037 159.169 38.8296 159.193 38.309" fill="#333333"/>
<path d="M137.696 26.6301C134.028 35.2727 106.227 52.5613 106.227 52.5613C106.227 52.5613 97.7836 24.2434 101.452 15.6004C105.12 6.95823 116.207 2.4214 126.216 5.46699C136.224 8.51302 141.364 17.9879 137.696 26.6301Z" fill="#C80008"/>
<path d="M128.386 23.0178C126.662 27.0799 121.45 29.2127 116.746 27.7812C112.041 26.3496 109.625 21.8958 111.349 17.8333C113.073 13.7707 118.284 11.6379 122.989 13.0699C127.694 14.5015 130.11 18.9553 128.386 23.0178Z" fill="white"/>
<path d="M103.975 17.9206C107.161 10.4125 116.793 6.47142 125.487 9.11709C130.569 10.6637 134.205 14.1192 135.713 18.2219C134.724 13.3197 130.793 9.02544 124.956 7.24927C116.262 4.60361 106.63 8.54463 103.444 16.0523C102.12 19.1714 102.118 22.4155 103.191 25.3322C102.707 22.9326 102.927 20.3877 103.975 17.9206" fill="#FA554B"/>
<path d="M104.495 45.2758C105.448 49.5994 106.228 52.5611 106.228 52.5611C106.228 52.5611 134.028 35.2721 137.697 26.63C137.889 26.1764 138.052 25.7202 138.197 25.2628C136.462 27.4458 134.459 29.4758 132.271 31.3289C126.224 36.4511 119.474 38.8577 111.948 42.2155C109.522 43.2981 107.033 44.341 104.495 45.2758" fill="#EA6D71"/>
</svg>
