<svg width="960" height="943" viewBox="0 0 960 943" fill="none" xmlns="http://www.w3.org/2000/svg">
<ellipse cx="480" cy="471.5" rx="480" ry="471.5" fill="#B92302"/>
<g filter="url(#filter0_d)">
<path d="M751.731 238.3C732.985 222.15 707.563 213.077 681.056 213.077C654.549 213.077 629.127 222.15 610.38 238.3L481.125 349.688L351.869 238.3C342.648 230.072 331.617 223.509 319.421 218.994C307.225 214.479 294.107 212.103 280.834 212.003C267.561 211.904 254.397 214.084 242.112 218.415C229.827 222.747 218.665 229.143 209.279 237.232C199.893 245.321 192.47 254.939 187.444 265.526C182.418 276.113 179.888 287.457 180.004 298.896C180.119 310.334 182.877 321.638 188.116 332.149C193.355 342.659 200.971 352.165 210.518 360.112L339.724 471.5L210.518 582.888C200.971 590.835 193.355 600.341 188.116 610.851C182.877 621.362 180.119 632.666 180.004 644.104C179.888 655.543 182.418 666.887 187.444 677.474C192.47 688.061 199.893 697.679 209.279 705.768C218.665 713.857 229.827 720.253 242.112 724.585C254.397 728.916 267.561 731.096 280.834 730.997C294.107 730.897 307.225 728.521 319.421 724.006C331.617 719.491 342.648 712.928 351.869 704.7L481.125 593.312L610.38 704.7C629.874 721.542 655.465 729.941 681.056 729.941C706.647 729.941 732.238 721.542 751.731 704.7C770.472 688.545 781 666.637 781 643.794C781 620.951 770.472 599.043 751.731 582.888L622.526 471.5L751.731 360.112C770.472 343.957 781 322.049 781 299.206C781 276.363 770.472 254.455 751.731 238.3V238.3Z" fill="white"/>
</g>
<defs>
<filter id="filter0_d" x="124" y="156" width="721" height="639" filterUnits="userSpaceOnUse" color-interpolation-filters="sRGB">
<feFlood flood-opacity="0" result="BackgroundImageFix"/>
<feColorMatrix in="SourceAlpha" type="matrix" values="0 0 0 0 0 0 0 0 0 0 0 0 0 0 0 0 0 0 127 0"/>
<feOffset dx="4" dy="4"/>
<feGaussianBlur stdDeviation="30"/>
<feColorMatrix type="matrix" values="0 0 0 0 0.219608 0 0 0 0 0.305882 0 0 0 0 0.219608 0 0 0 0.56 0"/>
<feBlend mode="normal" in2="BackgroundImageFix" result="effect1_dropShadow"/>
<feBlend mode="normal" in="SourceGraphic" in2="effect1_dropShadow" result="shape"/>
</filter>
</defs>
</svg>
