<svg width="287" height="138" viewBox="0 0 287 138" fill="none" xmlns="http://www.w3.org/2000/svg">
<path d="M78.7524 17.2287C75.8239 23.963 53.6296 37.4343 53.6296 37.4343C53.6296 37.4343 46.8889 15.3687 49.8174 8.63442C52.7455 1.90047 61.5967 -1.63463 69.5869 0.738495C77.5771 3.11162 81.6809 10.4948 78.7524 17.2287Z" fill="#C80008"/>
<path d="M71.3183 14.4145C69.942 17.5797 65.7811 19.2416 62.0251 18.1261C58.2694 17.0103 56.3404 13.5402 57.7171 10.3747C59.0933 7.20921 63.2542 5.54729 67.0098 6.6631C70.7659 7.77857 72.6949 11.249 71.3183 14.4145Z" fill="white"/>
<path d="M51.83 10.4418C54.3737 4.59183 62.0627 1.52097 69.0036 3.58247C73.0613 4.78756 75.9638 7.47975 77.168 10.6766C76.3788 6.85715 73.2407 3.51105 68.5805 2.12707C61.6396 0.0652335 53.9506 3.13642 51.4064 8.98637C50.3498 11.4168 50.3482 13.9445 51.2043 16.2169C50.8178 14.3475 50.9939 12.3641 51.83 10.4418" fill="#FA554B"/>
<path d="M52.2457 31.7576C53.0064 35.1266 53.6293 37.4343 53.6293 37.4343C53.6293 37.4343 75.8236 23.9631 78.7521 17.2288C78.9058 16.8754 79.0358 16.5196 79.1516 16.1635C77.7668 17.8645 76.1676 19.4462 74.4209 20.8905C69.5931 24.8814 64.2049 26.7566 58.1966 29.3733C56.2598 30.2166 54.2717 31.0292 52.2457 31.7576" fill="#EA6D71"/>
<path d="M28.8597 135.787C28.8911 135.617 28.9787 135.421 29.1169 135.192C29.4846 134.579 29.8617 133.902 30.3623 133.354C30.8136 132.86 31.7173 132.98 32.3916 133.053C33.4364 133.167 34.4808 133.281 35.5256 133.396C35.5737 133.401 35.6242 133.407 35.6629 133.431C35.7677 133.496 35.7188 133.632 35.6609 133.728C35.1077 134.652 34.5546 135.575 34.0014 136.498C33.8982 136.67 33.7886 136.849 33.6015 136.962C33.385 137.094 33.1005 137.117 32.8323 137.123C31.7716 137.149 30.7011 136.997 29.7138 136.675C29.0399 136.455 28.7839 136.198 28.8597 135.787Z" fill="#272525"/>
<path d="M22.5855 95.1528L28.8966 115.669L29.0107 136.313L31.5972 137.022L33.4817 136.229L37.1827 114.869L39.717 93.8696L22.5855 95.1528" fill="#120816"/>
<path d="M4.22472 134.851C4.31155 134.695 4.46118 134.527 4.67071 134.338C5.22879 133.833 5.81823 133.268 6.48229 132.857C7.08154 132.485 7.90988 132.806 8.53277 133.031C9.4989 133.38 10.4642 133.728 11.4304 134.077C11.4748 134.093 11.5217 134.11 11.551 134.142C11.6293 134.229 11.5372 134.348 11.4491 134.427C10.6085 135.188 9.76798 135.949 8.9274 136.71C8.77086 136.851 8.60535 136.998 8.38766 137.065C8.13573 137.142 7.85486 137.098 7.59438 137.043C6.56669 136.826 5.58872 136.435 4.74814 135.9C4.17376 135.534 4.01438 135.228 4.22472 134.851Z" fill="#272525"/>
<path d="M12.0478 93.6237L10.319 114.228L4.44934 134.648L6.69791 135.921L8.77442 135.589L19.4783 115.908L28.9409 96.3065L12.0478 93.6237" fill="#120816"/>
<path d="M28.8168 48.8578C30.213 49.9396 31.0222 52.8134 31.7152 54.1182C36.011 62.1822 39.6961 70.4568 43.2336 78.7647C45.0068 82.9292 46.7422 87.1044 48.5 91.2732C48.8228 92.0396 52.3876 101.255 52.6351 101.231C35.8984 102.889 23.0124 105.165 6.29087 103.745C4.3566 103.578 4.2824 93.809 4.17315 92.5567C3.63057 86.3436 3.5519 80.0814 4.44994 73.8875C5.12011 69.2659 6.34101 64.6854 8.27487 60.3087C9.79497 56.8686 12.1532 50.733 16.4636 48.9946C18.7737 48.0628 26.1851 47.489 28.4467 48.6223C28.5747 48.6867 28.6978 48.7655 28.8168 48.8578Z" fill="#B60584"/>
<path d="M35.2727 43.4039C34.223 45.3974 32.248 46.9394 30.3247 48.4231C25.7216 51.973 21.1189 55.5226 16.5157 59.0725C16.3168 59.2258 16.1126 59.3821 15.8619 59.4683C15.4306 59.6169 14.9398 59.5354 14.4836 59.4518C9.65589 58.5681 4.82775 57.6841 0 56.8004C2.1862 52.4676 4.69772 48.2472 7.51537 44.1711C9.54748 41.2316 11.8254 38.2895 15.1615 36.3243C18.4802 34.3703 26.0057 31.9052 30.1139 32.8657C35.1329 34.0385 37.1781 39.7866 35.2727 43.4039" fill="#E07A02"/>
<path d="M63.2154 32.9388C63.0593 32.4803 62.844 32.0279 62.438 31.6957C62.3606 31.6327 62.2689 31.5714 62.1608 31.5646C61.9986 31.5545 61.8669 31.6654 61.7605 31.7674C61.0365 32.4611 60.3122 33.1548 59.5878 33.8485C59.1781 33.6847 59.0795 33.1726 58.6449 33.0611C58.19 32.9442 57.8068 33.3485 57.5801 33.6948C57.5263 33.7774 57.4709 33.8643 57.4693 33.9576C57.4664 34.1015 57.5866 34.2231 57.6792 34.3444C59.4043 36.6012 53.0129 38.3868 56.8635 40.1825C57.2894 40.3809 57.8692 40.5672 58.2201 40.2859C58.3322 40.1966 58.3946 40.074 58.4598 39.9574C58.8964 39.1762 59.6542 38.3588 60.5775 37.93C61.4593 37.52 62.3512 37.4293 62.97 36.6605C63.784 35.6492 63.643 34.311 63.279 33.1342C63.2586 33.0689 63.2374 33.0039 63.2154 32.9388" fill="#DEC1A5"/>
<path d="M31.1391 66.3842L48.0507 57.4395L60.2524 38.7416L56.4413 37.0814L37.3362 50.5499L27.0786 50.5092L17.6869 59.6462L31.1391 66.3842Z" fill="#B60584"/>
</svg>
