<svg width="960" height="988" viewBox="0 0 960 988" fill="none" xmlns="http://www.w3.org/2000/svg">
<ellipse cx="480" cy="516.5" rx="480" ry="471.5" fill="#009D2C"/>
<g filter="url(#filter0_d)">
<path d="M733.56 267.069C722.967 261.969 711.315 258.726 699.272 257.525C687.229 256.324 675.03 257.189 663.373 260.069C651.717 262.95 640.831 267.79 631.338 274.314C621.845 280.837 613.932 288.915 608.051 298.086L436.721 564.827L338.667 479.998C330.154 472.373 319.97 466.291 308.711 462.106C297.452 457.922 285.342 455.72 273.088 455.627C260.835 455.535 248.682 457.555 237.341 461.57C225.999 465.584 215.695 471.512 207.03 479.009C198.365 486.505 191.512 495.419 186.872 505.231C182.232 515.043 179.897 525.556 180.003 536.157C180.11 546.758 182.656 557.234 187.492 566.975C192.329 576.715 199.36 585.525 208.174 592.89L392.747 752.567C410.189 767.697 433.722 776 457.993 776L470.775 775.202C484.92 773.49 498.413 768.961 510.191 761.971C521.97 754.982 531.712 745.723 538.651 734.923L769.367 375.649C775.258 366.486 779.004 356.408 780.392 345.992C781.781 335.576 780.784 325.026 777.459 314.943C774.134 304.86 768.546 295.443 761.014 287.228C753.481 279.014 744.153 272.164 733.56 267.069Z" fill="white"/>
</g>
<defs>
<filter id="filter0_d" x="124" y="201" width="721" height="639" filterUnits="userSpaceOnUse" color-interpolation-filters="sRGB">
<feFlood flood-opacity="0" result="BackgroundImageFix"/>
<feColorMatrix in="SourceAlpha" type="matrix" values="0 0 0 0 0 0 0 0 0 0 0 0 0 0 0 0 0 0 127 0"/>
<feOffset dx="4" dy="4"/>
<feGaussianBlur stdDeviation="30"/>
<feColorMatrix type="matrix" values="0 0 0 0 0.220802 0 0 0 0 0.3067 0 0 0 0 0.219049 0 0 0 0.56 0"/>
<feBlend mode="normal" in2="BackgroundImageFix" result="effect1_dropShadow"/>
<feBlend mode="normal" in="SourceGraphic" in2="effect1_dropShadow" result="shape"/>
</filter>
</defs>
</svg>
